HIERARCHY
ROOT hips
{
  OFFSET 0 10.680822821525009 1.3929502295107734
  CHANNELS 6 Xposition Yposition Zposition Yrotation Xrotation Zrotation
  JOINT spine
  {
    OFFSET -7.042017322922631e-31 0.6058489940359625 0
    CHANNELS 3 Yrotation Xrotation Zrotation
    JOINT chest
    {
      OFFSET 0 1.2699794144455032 0
      CHANNELS 3 Yrotation Xrotation Zrotation
      JOINT upperChest
      {
        OFFSET 0 1.217799211677689 0
        CHANNELS 3 Yrotation Xrotation Zrotation
        JOINT neck
        {
          OFFSET 0 1.5248826104153006 0
          CHANNELS 3 Yrotation Xrotation Zrotation
          JOINT head
          {
            OFFSET 0 0.8197772727844447 0
            CHANNELS 3 Yrotation Xrotation Zrotation
            JOINT leftEye
            {
              OFFSET 0.2793952361220866 0.6769952096623495 0.1830357412467788
              CHANNELS 3 Yrotation Xrotation Zrotation
              End Site
              {
                OFFSET 0.2793952361220866 0.6769952096623495 0.1830357412467788
              }
            }
            JOINT rightEye
            {
              OFFSET -0.27939522230689573 0.676995205357064 0.18303631459760622
              CHANNELS 3 Yrotation Xrotation Zrotation
              End Site
              {
                OFFSET -0.27939522230689573 0.676995205357064 0.18303631459760622
              }
            }
          }
        }
        JOINT leftShoulder
        {
          OFFSET 0.41486978509200423 1.1670505408695453 0
          CHANNELS 3 Yrotation Xrotation Zrotation
          JOINT leftUpperArm
          {
            OFFSET 0.9737926108153417 0 0
            CHANNELS 3 Yrotation Xrotation Zrotation
            JOINT leftLowerArm
            {
              OFFSET 2.5269332222665284 0 0
              CHANNELS 3 Yrotation Xrotation Zrotation
              JOINT leftHand
              {
                OFFSET 2.4263782738425914 0 0
                CHANNELS 3 Yrotation Xrotation Zrotation
                JOINT leftIndexProximal
                {
                  OFFSET 0.724320348022514 0.08170607082582437 0.20360061616140124
                  CHANNELS 3 Yrotation Xrotation Zrotation
                  JOINT leftIndexIntermediate
                  {
                    OFFSET 0.36548960630744587 -0.010566596513783999 -0.01414783573280308
                    CHANNELS 3 Yrotation Xrotation Zrotation
                    JOINT leftIndexDistal
                    {
                      OFFSET 0.22502819650693362 -0.007863819831430696 -0.007567681939621526
                      CHANNELS 3 Yrotation Xrotation Zrotation
                      End Site
                      {
                        OFFSET 0.22502819650693362 -0.007863819831430696 -0.007567681939621526
                      }
                    }
                  }
                }
                JOINT leftLittleProximal
                {
                  OFFSET 0.6720322998298205 0.08170601055037707 -0.3230036039466837
                  CHANNELS 3 Yrotation Xrotation Zrotation
                  JOINT leftLittleIntermediate
                  {
                    OFFSET 0.34583592281688713 5.476543019078406e-8 1.3869203337180114e-7
                    CHANNELS 3 Yrotation Xrotation Zrotation
                    JOINT leftLittleDistal
                    {
                      OFFSET 0.19925728062053938 0.003098047439490381 0.0038303983709246925
                      CHANNELS 3 Yrotation Xrotation Zrotation
                      End Site
                      {
                        OFFSET 0.19925728062053938 0.003098047439490381 0.0038303983709246925
                      }
                    }
                  }
                }
                JOINT leftMiddleProximal
                {
                  OFFSET 0.7300436596551069 0.0817073395107144 0.022661722987926763
                  CHANNELS 3 Yrotation Xrotation Zrotation
                  JOINT leftMiddleIntermediate
                  {
                    OFFSET 0.40758254347686607 -0.0000012383587111308714 2.408460318820138e-7
                    CHANNELS 3 Yrotation Xrotation Zrotation
                    JOINT leftMiddleDistal
                    {
                      OFFSET 0.2514490105498507 0.0000013869132886590307 9.738618134136345e-8
                      CHANNELS 3 Yrotation Xrotation Zrotation
                      End Site
                      {
                        OFFSET 0.2514490105498507 0.0000013869132886590307 9.738618134136345e-8
                      }
                    }
                  }
                }
                JOINT leftRingProximal
                {
                  OFFSET 0.7217261161191838 0.08170601902187746 -0.15043395722184966
                  CHANNELS 3 Yrotation Xrotation Zrotation
                  JOINT leftRingIntermediate
                  {
                    OFFSET 0.37808807487521556 0.0000013754022405443322 2.2046919317952884e-7
                    CHANNELS 3 Yrotation Xrotation Zrotation
                    JOINT leftRingDistal
                    {
                      OFFSET 0.21812105442344254 -0.002713483731960231 -0.004991354517454624
                      CHANNELS 3 Yrotation Xrotation Zrotation
                      End Site
                      {
                        OFFSET 0.21812105442344254 -0.002713483731960231 -0.004991354517454624
                      }
                    }
                  }
                }
                JOINT leftThumbProximal
                {
                  OFFSET 0.10793587079521427 -0.1652791240518252 -0.07775251827190094
                  CHANNELS 3 Yrotation Xrotation Zrotation
                  JOINT leftThumbIntermediate
                  {
                    OFFSET 0.40355819082296684 -0.017484006740276614 0.3177776014416309
                    CHANNELS 3 Yrotation Xrotation Zrotation
                    JOINT leftThumbDistal
                    {
                      OFFSET 0.2318764658022603 -0.018510186824293617 0.21396001800186287
                      CHANNELS 3 Yrotation Xrotation Zrotation
                      End Site
                      {
                        OFFSET 0.2318764658022603 -0.018510186824293617 0.21396001800186287
                      }
                    }
                  }
                }
              }
            }
          }
        }
        JOINT rightShoulder
        {
          OFFSET -0.4148697850920044 1.1670505408695453 0
          CHANNELS 3 Yrotation Xrotation Zrotation
          JOINT rightUpperArm
          {
            OFFSET -0.9737926108153414 0 0
            CHANNELS 3 Yrotation Xrotation Zrotation
            JOINT rightLowerArm
            {
              OFFSET -2.5269332222665293 0 0
              CHANNELS 3 Yrotation Xrotation Zrotation
              JOINT rightHand
              {
                OFFSET -2.42637827384259 0 0
                CHANNELS 3 Yrotation Xrotation Zrotation
                JOINT rightIndexProximal
                {
                  OFFSET -0.724320348022514 0.08170607082582437 0.20360061616140124
                  CHANNELS 3 Yrotation Xrotation Zrotation
                  JOINT rightIndexIntermediate
                  {
                    OFFSET -0.36548960630744587 -0.010566596513783999 -0.01414783573280308
                    CHANNELS 3 Yrotation Xrotation Zrotation
                    JOINT rightIndexDistal
                    {
                      OFFSET -0.22502819650693362 -0.007863819831430696 -0.007567681939621526
                      CHANNELS 3 Yrotation Xrotation Zrotation
                      End Site
                      {
                        OFFSET -0.22502819650693362 -0.007863819831430696 -0.007567681939621526
                      }
                    }
                  }
                }
                JOINT rightLittleProximal
                {
                  OFFSET -0.6720322998298205 0.08170601055037707 -0.3230036039466837
                  CHANNELS 3 Yrotation Xrotation Zrotation
                  JOINT rightLittleIntermediate
                  {
                    OFFSET -0.34583592281688713 5.476543019078406e-8 1.3869203337180114e-7
                    CHANNELS 3 Yrotation Xrotation Zrotation
                    JOINT rightLittleDistal
                    {
                      OFFSET -0.19925728062053938 0.003098047439490381 0.0038303983709246925
                      CHANNELS 3 Yrotation Xrotation Zrotation
                      End Site
                      {
                        OFFSET -0.19925728062053938 0.003098047439490381 0.0038303983709246925
                      }
                    }
                  }
                }
                JOINT rightMiddleProximal
                {
                  OFFSET -0.7300436596551069 0.0817073395107144 0.022661722987926763
                  CHANNELS 3 Yrotation Xrotation Zrotation
                  JOINT rightMiddleIntermediate
                  {
                    OFFSET -0.40758254347686607 -0.0000012383587111308714 2.408460318820138e-7
                    CHANNELS 3 Yrotation Xrotation Zrotation
                    JOINT rightMiddleDistal
                    {
                      OFFSET -0.2514490105498507 0.0000013869132886590307 9.738618134136345e-8
                      CHANNELS 3 Yrotation Xrotation Zrotation
                      End Site
                      {
                        OFFSET -0.2514490105498507 0.0000013869132886590307 9.738618134136345e-8
                      }
                    }
                  }
                }
                JOINT rightRingProximal
                {
                  OFFSET -0.7217261161191838 0.08170601902187746 -0.15043395722184966
                  CHANNELS 3 Yrotation Xrotation Zrotation
                  JOINT rightRingIntermediate
                  {
                    OFFSET -0.37808807487521556 0.0000013754022405443322 2.2046919317952884e-7
                    CHANNELS 3 Yrotation Xrotation Zrotation
                    JOINT rightRingDistal
                    {
                      OFFSET -0.21812105442344254 -0.002713483731960231 -0.004991354517454624
                      CHANNELS 3 Yrotation Xrotation Zrotation
                      End Site
                      {
                        OFFSET -0.21812105442344254 -0.002713483731960231 -0.004991354517454624
                      }
                    }
                  }
                }
                JOINT rightThumbProximal
                {
                  OFFSET -0.10793587079521427 -0.1652791240518252 -0.07775251827190094
                  CHANNELS 3 Yrotation Xrotation Zrotation
                  JOINT rightThumbIntermediate
                  {
                    OFFSET -0.40355819082296684 -0.017484006740276614 0.3177776014416309
                    CHANNELS 3 Yrotation Xrotation Zrotation
                    JOINT rightThumbDistal
                    {
                      OFFSET -0.2318764658022603 -0.018510186824293617 0.21396001800186287
                      CHANNELS 3 Yrotation Xrotation Zrotation
                      End Site
                      {
                        OFFSET -0.2318764658022603 -0.018510186824293617 0.21396001800186287
                      }
                    }
                  }
                }
              }
            }
          }
        }
      }
    }
  }
  JOINT leftUpperLeg
  {
    OFFSET 0.8486251390888677 -0.4421577294694363 0
    CHANNELS 3 Yrotation Xrotation Zrotation
    JOINT leftLowerLeg
    {
      OFFSET 0 -4.10147812638609 0
      CHANNELS 3 Yrotation Xrotation Zrotation
      JOINT leftFoot
      {
        OFFSET -0.0002543926476658853 -4.77292286812444 0.007402811231737388
        CHANNELS 3 Yrotation Xrotation Zrotation
        JOINT leftToes
        {
          OFFSET 0 -0.7027875951174846 1.2062924140498823
          CHANNELS 3 Yrotation Xrotation Zrotation
          End Site
          {
            OFFSET 0 -0.7027875951174846 1.2062924140498823
          }
        }
      }
    }
  }
  JOINT rightUpperLeg
  {
    OFFSET -0.8486251390888677 -0.4421577294694363 0
    CHANNELS 3 Yrotation Xrotation Zrotation
    JOINT rightLowerLeg
    {
      OFFSET 0 -4.10147812638609 0
      CHANNELS 3 Yrotation Xrotation Zrotation
      JOINT rightFoot
      {
        OFFSET 0.0002543926476658853 -4.77292286812444 0.007402811231737388
        CHANNELS 3 Yrotation Xrotation Zrotation
        JOINT rightToes
        {
          OFFSET 0 -0.7027875951174846 1.2062924140498823
          CHANNELS 3 Yrotation Xrotation Zrotation
          End Site
          {
            OFFSET 0 -0.7027875951174846 1.2062924140498823
          }
        }
      }
    }
  }
}
MOTION
Frames: 4
Frame Time: 0.03333333333333333
0.041507139801979065 -0.10638091173496989 0.18382222950458527 -2.9022177317293973 -5.111388184403564 -2.1313892507693746 4.2881243014676205 4.694417007894286 1.8136673360353328 2.707927309901766 28.44915953758011 0.668042263151991 0 0 0 -0.7552815381461856 2.229049351427576 -0.14048573076404924 -4.785430431639172 17.869788834046943 2.174345600384012 0 0 0 0 0 0 -10.586561789666858 2.925459991748223 -17.978379937861867 -19.171931332448167 -21.092663734617876 -45.273211556887176 -4.948586378032867 -0.7006156295560451 0.09425214692516443 -1.9165026983021012 -1.605460135347715 -6.7584876228426145 4.069347031951502 0.5988918170621217 -17.800613353638933 2.479743792692831 0.6397141344582126 -28.929377531633758 1.6783883177539591 0.28259758134563556 -19.11489950774432 5.291825792868128 0.9959014397841046 -27.935840382553256 2.7867439862591232 0.823651905160236 -32.92728140769488 1.6564784680686093 0.2750505064692066 -18.855950781206563 7.424386462314222 2.1579541073749215 -20.055129846389963 2.3446136629861196 0.5676497129926178 -27.2186695326268 2.232156033359101 0.511565927634514 -25.814459338324966 8.535562423718746 2.849038814066851 -21.055390644733748 3.525908325588077 1.4048310560451862 -43.43948892437329 2.129016940206767 0.4630719101240273 -24.54139311682574 3.902274626290832 1.3237581606612363 10.495190646690324 4.7867467097639835 12.895088400348683 12.08417269716018 -27.281379862305798 -5.273649139642507 17.859058950744643 10.276283649394712 0.837098704818127 20.59131269907267 13.372376995374571 -17.883008264320107 45.30552084804749 4.90350652038983 -0.6942743963254691 -0.09307954190341655 1.921394729067899 0.37388947658335775 3.4869129723645726 2.614580932509917 -2.039314165870746 18.0108259931319 -2.235458685046087 0.6990501721616007 34.72683896672628 -1.907202271774338 0.4947214979971935 29.081095743185735 -13.053955670728135 -11.150888034676525 19.85805583066518 -2.6599433951426317 1.0390637295420735 42.66896556939105 -1.5352166522434343 0.3128316888067333 23.033770524868025 0.2769616603138204 -1.9294177364696183 21.43675869607637 -2.69706453683383 1.0737464955330136 43.41006166249978 -1.7198914944612145 0.39705263984911926 25.997145512033512 -2.795572338223729 -0.15036890828631286 19.838102575993023 -3.064552311590925 1.4728644401689914 51.33084599814504 -1.6238272078231561 0.35180225616052024 24.446597469699313 1.3565105475623938 -5.290596798327637 -14.260761318659606 -21.342124643527022 18.154566236337907 1.917408850300525 13.675287478702423 -20.639378942862685 -15.035261686957517 9.453249299794933 -3.258185459351888 6.1393300725625695 -9.84925647583801 15.657053380297059 0.8753283715984024 -4.901565034294631 -9.45924927481323 -4.56407171038117 -7.069578153219869e-9 0.4166262410762911 -8.537950201447019e-7 -5.749185818092015 -3.924435686991499 -1.3956869609427602 10.039719762481809 13.527441737585093 0.14048126495799562 12.568686988847787 -5.8368141555492175 -1.107910514632294 0.0009382651553330528 0.24598276152578064 0.075399501071512
0.04212578386068344 -0.1087031086954191 0.18243204057216644 -2.895951386157463 -5.153226052790382 -2.1181284413554566 4.290999067519363 4.74536583632992 1.8038729892979042 2.7120693768659883 28.512045045586117 0.669459069008134 0 0 0 -0.7564954369707337 2.2333381196953477 -0.1403423051010503 -4.8013066569519305 17.82372227806036 2.1827271798880097 0 0 0 0 0 0 -10.640661889711653 2.9173537616053604 -18.057576314546466 -19.19016931435075 -21.08184782758902 -45.154466076318066 -4.988408030866725 -0.7062186211922872 0.0952063347830135 -1.9297930496361528 -1.7377197754642784 -6.750517627664547 4.054156558291421 0.5789379127337363 -17.867299747237944 2.4837624462827077 0.6419308829349645 -28.98065729839331 1.6804134651222127 0.2833001122209065 -19.138934752738486 5.28632398157091 0.9911351721868475 -27.931034511788724 2.786864570517254 0.823718186188553 -32.92894118853488 1.6567794904653041 0.2751523468308442 -18.8596016983733 7.408425886678494 2.1509616675460936 -20.083517151883342 2.3451665972269726 0.5679332331254237 -27.22558894431888 2.2330205480255443 0.5119764490518601 -25.825081323913203 8.529205392653123 2.8471030525942735 -21.075440236592613 3.5250542705635235 1.4040367012051558 -43.426450177452324 2.129215779086273 0.46316033194569584 -24.54387346921668 3.902274626290832 1.3237581606612363 10.495190646690324 4.7631718385715915 12.881658283260778 12.090622255660595 -27.284363628356765 -5.28189441008128 17.87176341788844 10.27970704523012 0.8338574888333404 20.6601498894034 13.364091352798772 -17.92468605724274 45.22516677828717 4.911497259348191 -0.6954190174294991 -0.09332021894136724 1.9217319688858299 0.31616084252980087 3.456746575209449 2.6097417455914282 -2.0381555019343103 18.0156201185676 -2.235891623816148 0.6993588876827849 34.73434905258193 -1.9061930225518036 0.4941677518077197 29.064153363204323 -13.050797625661737 -11.188232541905943 19.840568568150836 -2.6603470632417716 1.0394368900085815 42.67692522256563 -1.5352530166368303 0.3128409203718881 23.03437344308517 0.2818208304809089 -1.9364429548806303 21.478700675937027 -2.698330801737498 1.0749333428161152 43.4355034740769 -1.720255994472939 0.3972287882559746 26.003331433055376 -2.764851676070677 -0.16802150702311794 19.886114450058727 -3.0643776334141144 1.4726530613642057 51.32691285726697 -1.6232431895708592 0.3515353401467032 24.437363178553003 1.3565105475623938 -5.290596798327637 -14.260761318659606 -20.888985282906624 17.863866604279206 1.851408150004131 13.866647404895433 -20.656312715971495 -15.317409267909085 9.441884521581411 -3.300657252229314 6.125210153209652 -9.87649948562347 15.812999265356012 0.8355829172733337 -4.9001156500643255 -9.519193339117136 -4.537720133212744 0.000011842518385884072 0.4068426495999272 -4.426292100419549e-7 -5.747544946051445 -3.991949655310162 -1.4123995354147996 10.042603651499658 13.730797009692076 0.16400749089711292 12.572304515191345 -5.931567886389025 -1.135087300799214 0.0008726051654799628 0.2480168160975871 0.07186793430867053
0.042833518236875534 -0.11298319902745035 0.17986318469047546 -2.893351439657419 -5.212294688861264 -2.086256161607962 4.306346662975045 4.81966548519486 1.780855619319977 2.7227339833239936 28.623779685949355 0.6695753988892607 0 0 0 -0.7621492334116455 2.2502478824410446 -0.1408245460240673 -4.852367249616508 17.767828752110425 2.1966466552284905 0 0 0 0 0 0 -10.739798859923027 2.8994826038527974 -18.215145381136516 -19.221668568028235 -21.09139360253326 -44.926652183466786 -5.014360008630741 -0.7098702764584315 0.09587262232465851 -1.9169051402186001 -1.9531511109000879 -6.69757446233548 4.05685010147805 0.5736803754636812 -18.012757690650965 2.4976865856924673 0.6496786238789067 -29.158726048475227 1.6808956130460557 0.28345955639950476 -19.144673561152185 5.276188853332282 0.9817932904853948 -27.932100272435395 2.7876702821185666 0.8242327981069528 -32.93949463559756 1.6563432078964142 0.2750095782235116 -18.854403168610467 7.392149211632382 2.1460968604350543 -20.151588459587167 2.3450807208797784 0.567890062074754 -27.22448914808292 2.2328389855226445 0.5118895207526626 -25.82290926595038 8.50611480302485 2.836743428736118 -21.10938778839825 3.523829656888032 1.4028863230038557 -43.407786023668656 2.127661715816593 0.46245370447949197 -24.524634108918352 3.902274626290832 1.3237581606612363 10.495190646690324 4.843952464605782 12.927622681875219 12.067876408141219 -27.25067327591355 -5.222218231505058 17.73105101868268 10.289220961857923 0.824741593156254 20.78741518801278 13.29975467651317 -17.99679390085302 45.13412867712805 4.8974454660433056 -0.6934047641030995 -0.09293498699151335 1.8847747090198887 0.20689508381919788 3.348150387742935 2.5996484793785695 -2.03086053020751 17.986148151906207 -2.238861487110305 0.7014428914180872 34.787168773381865 -1.902999388636256 0.4923852731802589 29.010994777745122 -13.046150881586872 -11.246304848526652 19.807383017839364 -2.6607130958661123 1.0397765343845649 42.684220156972685 -1.5348227101519842 0.31266303931873035 23.027450766018184 0.2944007953928607 -1.9495059449657213 21.536623674584334 -2.7002449147890952 1.076749105839852 43.47381773939275 -1.7195951605377942 0.3969101095899121 25.992270097891794 -2.717137597821292 -0.1944515900846187 19.923769678632965 -3.0639990370111363 1.4721924050989825 51.318054757199185 -1.6220896418986444 0.3510109265092234 24.419171161117305 1.3565105475623938 -5.290596798327637 -14.260761318659606 -20.154031521786354 17.39701001220888 1.7399783451740578 14.221770609691015 -20.696388315484466 -15.815470661725065 9.418757669716694 -3.387131249904509 6.096349874027809 -9.905038513184568 16.089278698602037 0.7743611538241881 -4.897833632814108 -9.633790700652142 -4.498452191781622 -0.0000021644168181952307 0.39382863373327087 -0.000001923033584390335 -5.739779862658441 -4.14478251097517 -1.447639103767206 10.056557835661568 14.118904511200059 0.21624676483936772 12.579397762986552 -6.105487470569022 -1.2124051127319335 0.0008912889853537119 0.246869547061488 0.07334381700134653
0.04205901175737381 -0.11696478929844645 0.1758527159690857 -2.878527485730347 -5.24345299754786 -2.0651598529261737 4.33209601330992 4.8776898306657515 1.736651392702293 2.7369791809813644 28.748888021896647 0.6583936916336381 0 0 0 -0.779838976200776 2.280003372954094 -0.13214543798029763 -4.96931347243919 17.748075531222806 2.259762606500824 0 0 0 0 0 0 -10.856665913766413 2.871574711365185 -18.354446141572318 -19.235033462571216 -21.175340879230816 -44.700976991543484 -5.0222276248678135 -0.7109904068661003 0.09607157613771226 -1.8620278979700724 -2.126569010280051 -6.551248178907064 4.046840133834851 0.5577276910462632 -18.11678167317582 2.5070400623562303 0.6548945050092485 -29.27836212639585 1.6785849105711506 0.28266740487115566 -19.117149774615143 5.271788532212817 0.9751438787797797 -27.915533281562407 2.7894698788130876 0.8254156106124724 -32.963528766156145 1.6521667258752355 0.27357639601345063 -18.805129840362945 7.384786789655976 2.1420441478907355 -20.150693542258477 2.3415144523195734 0.566056440033344 -27.179543875511037 2.22885447766666 0.5099549528369426 -25.773607202955734 8.476380698657508 2.8176389748441473 -21.08378016267722 3.5225916220415576 1.4017079759115683 -43.38869651201189 2.123154385801559 0.4603934818617966 -24.469327765999754 3.902274626290832 1.3237581606612363 10.495190646690324 4.913955336793024 12.967559902678639 12.048501090203446 -27.20920814645343 -5.1528158642733155 17.554403614057307 10.327688052116791 0.8003447989286201 20.932980041062113 13.069540412342477 -18.072408569309097 45.158462661824814 4.867577055799305 -0.6892074140618634 -0.09220608959665401 1.8250391370827903 -0.12473902959846149 3.058436455001488 2.6229333070002268 -2.0480713428817623 18.0073034113395 -2.241178957511639 0.7030331109121187 34.828478915442645 -1.9011023918743297 0.4913351996247003 28.97917744398698 -13.0475347418286 -11.235610220361789 19.784286659071253 -2.658282765828944 1.0375455774462656 42.635942132672554 -1.5313246456283436 0.31117352907916035 22.972037447201515 0.3169306688798111 -1.9605339416360397 21.520344570730554 -2.698480555149395 1.0750710380519408 43.43841730396061 -1.7164840753275428 0.3953924106154289 25.941930284403707 -2.722177779749941 -0.19022273200503634 19.87306141225124 -3.063068659204166 1.4710228830733132 51.2964241007607 -1.6200260894342378 0.35007309196753145 24.385918073024392 1.3565105475623938 -5.290596798327637 -14.260761318659606 -19.89005975999522 17.23165792256317 1.698909416942245 14.698194869923022 -20.809470416650285 -16.349534472658753 9.389223188901695 -3.515970401405702 6.090397795541601 -9.904776979057553 16.364791491266317 0.7308060741725152 -4.896016962730148 -9.757180011588897 -4.473629484811388 -0.000014007363060179971 0.3909621015324569 -0.0000016940388311730126 -5.711461607123619 -4.306540259900594 -1.4430421846127308 10.034745442102562 14.460906364249544 0.23856279004116712 12.57500354317018 -6.238849901262203 -1.2686520350067088 0.0010546483731543057 0.23758979835960145 0.08808688658295644
